<?xml version="1.0" encoding="UTF-8" standalone="no" ?>
<!DOCTYPE svg PUBLIC "-//W3C//DTD SVG 1.1//EN" "http://www.w3.org/Graphics/SVG/1.1/DTD/svg11.dtd">
<svg xmlns="http://www.w3.org/2000/svg" xmlns:xlink="http://www.w3.org/1999/xlink" version="1.1" width="500" height="500" viewBox="0 0 500 500" xml:space="preserve">
<desc>Created with Fabric.js 4.6.0</desc>
<defs>
</defs>
<g transform="matrix(3.32 0 0 3.32 250.33 250.33)" id="pIgY_dRjG46oDlr6JWHQB"  >
<g style="" vector-effect="non-scaling-stroke"   >
		<g transform="matrix(1 0 0 1 0 0)" id="yftRmtGx8wg7D4d7nFVH3"  >
<path style="stroke: rgb(241,250,10); stroke-width: 0; stroke-dasharray: none; stroke-linecap: butt; stroke-dashoffset: 0; stroke-linejoin: miter; stroke-miterlimit: 4; fill: rgb(49,168,247); fill-rule: nonzero; opacity: 1;" vector-effect="non-scaling-stroke"  transform=" translate(-75, -75)" d="M 75 0 C 116.4 0 150 33.6 150 75 C 150 116.4 116.4 150 75 150 C 33.6 150 0 116.4 0 75 C 0 33.6 33.6 0 75 0 z" stroke-linecap="round" />
</g>
		<g transform="matrix(0.9 0 0 0.9 0 0)" id="0N_t_hB71XoMrnTYqXJWh"  >
<path style="stroke: rgb(241,250,10); stroke-width: 0; stroke-dasharray: none; stroke-linecap: butt; stroke-dashoffset: 0; stroke-linejoin: miter; stroke-miterlimit: 4; fill: rgb(140,88,140); fill-rule: nonzero; opacity: 1;" vector-effect="non-scaling-stroke"  transform=" translate(0, 0)" d="M 0 -70 C 38.64 -70 70 -38.64 70 0 C 70 38.64 38.64 70 0 70 C -38.64 70 -70 38.64 -70 0 C -70 -38.64 -38.64 -70 0 -70 z" stroke-linecap="round" />
</g>
		<g transform="matrix(0.64 0 0 0.64 0 0)" id="U1iojbKNbmMsl05WW0OUL"  >
<path style="stroke: rgb(241,250,10); stroke-width: 0; stroke-dasharray: none; stroke-linecap: butt; stroke-dashoffset: 0; stroke-linejoin: miter; stroke-miterlimit: 4; fill: rgb(255,255,255); fill-rule: nonzero; opacity: 1;" vector-effect="non-scaling-stroke"  transform=" translate(0, 0)" d="M 0 -70 C 38.64 -70 70 -38.64 70 0 C 70 38.64 38.64 70 0 70 C -38.64 70 -70 38.64 -70 0 C -70 -38.64 -38.64 -70 0 -70 z" stroke-linecap="round" />
</g>
		<g transform="matrix(0.89 0 0 0.89 0 27.02)" id="zvXveTiQXjTND1v6oZpVY"  >
<path style="stroke: none; stroke-width: 1; stroke-dasharray: none; stroke-linecap: butt; stroke-dashoffset: 0; stroke-linejoin: miter; stroke-miterlimit: 4; fill: rgb(179,181,179); fill-rule: nonzero; opacity: 1;" vector-effect="non-scaling-stroke"  transform=" translate(-40, -40)" d="M 60 40 L 80 80 L 40 80 L 0 80 L 20 40 L 40 0 L 60 40 z" stroke-linecap="round" />
</g>
		<g transform="matrix(1.01 0 0 1.09 0 -35.92)" id="V9ZgxTCGMhkxrvtrU7c0q"  >
<g style="" vector-effect="non-scaling-stroke"   >
		<g transform="matrix(1 0 0 1 0 21.05)" id="gXel1L_SWC1GIqwdMaZUP"  >
<path style="stroke: none; stroke-width: 1; stroke-dasharray: none; stroke-linecap: butt; stroke-dashoffset: 0; stroke-linejoin: miter; stroke-miterlimit: 4; fill: rgb(179,181,179); fill-rule: nonzero; opacity: 1;" vector-effect="non-scaling-stroke"  transform=" translate(-40, -61.1)" d="M 40 53.3 C 35.7 53.3 32.2 56.8 32.2 61.099999999999994 C 32.2 65.39999999999999 35.7 68.89999999999999 40 68.89999999999999 C 44.3 68.89999999999999 47.8 65.39999999999999 47.8 61.099999999999994 C 47.8 56.8 44.3 53.3 40 53.3 z" stroke-linecap="round" />
</g>
		<g transform="matrix(1 0 0 1 0 20.95)" id="7kMxm8DhhwU4IORh1_VRU"  >
<path style="stroke: none; stroke-width: 1; stroke-dasharray: none; stroke-linecap: butt; stroke-dashoffset: 0; stroke-linejoin: miter; stroke-miterlimit: 4; fill: rgb(255,255,255); fill-rule: nonzero; opacity: 1;" vector-effect="non-scaling-stroke"  transform=" translate(-40, -61)" d="M 43 61 C 43 62.6 41.7 64 40 64 C 38.3 64 37 62.7 37 61 C 37 59.4 38.3 58 40 58 C 41.7 58 43 59.4 43 61 z" stroke-linecap="round" />
</g>
		<g transform="matrix(1 0 0 1 0 6.9)" id="Dft_mKVy3vfFenkv_LUFM"  >
<path style="stroke: none; stroke-width: 1; stroke-dasharray: none; stroke-linecap: butt; stroke-dashoffset: 0; stroke-linejoin: miter; stroke-miterlimit: 4; fill: rgb(179,181,179); fill-rule: nonzero; opacity: 1;" vector-effect="non-scaling-stroke"  transform=" translate(-40, -46.95)" d="M 40 41.8 C 46.3 41.8 52.2 44.199999999999996 56.6 48.699999999999996 L 53.2 52.099999999999994 C 49.7 48.599999999999994 45 46.599999999999994 40 46.599999999999994 C 35 46.599999999999994 30.3 48.49999999999999 26.8 52.099999999999994 L 23.400000000000002 48.699999999999996 C 27.8 44.3 33.7 41.8 40 41.8 z" stroke-linecap="round" />
</g>
		<g transform="matrix(1 0 0 1 0 -5.75)" id="06cOK5ZJjb5SuBYluvF8j"  >
<path style="stroke: none; stroke-width: 1; stroke-dasharray: none; stroke-linecap: butt; stroke-dashoffset: 0; stroke-linejoin: miter; stroke-miterlimit: 4; fill: rgb(179,181,179); fill-rule: nonzero; opacity: 1;" vector-effect="non-scaling-stroke"  transform=" translate(-40, -34.3)" d="M 40 26.8 C 50.6 26.8 60.6 30.9 68.1 38.4 L 64.69999999999999 41.8 C 58.1 35.3 49.3 31.6 40 31.6 C 30.700000000000003 31.6 21.9 35.2 15.3 41.8 L 11.9 38.4 C 19.4 30.9 29.4 26.8 40 26.8 z" stroke-linecap="round" />
</g>
		<g transform="matrix(1 0 0 1 0 -18.85)" id="g-3s_wYLIC1HWs9E3ylV_"  >
<path style="stroke: none; stroke-width: 1; stroke-dasharray: none; stroke-linecap: butt; stroke-dashoffset: 0; stroke-linejoin: miter; stroke-miterlimit: 4; fill: rgb(179,181,179); fill-rule: nonzero; opacity: 1;" vector-effect="non-scaling-stroke"  transform=" translate(-40, -21.2)" d="M 40 11.2 C 55.1 11.2 69.3 17.1 80 27.8 L 76.6 31.2 C 66.8 21.4 53.8 16 40 16 C 26.200000000000003 16 13.2 21.4 3.4 31.1 L 0 27.7 C 10.7 17 24.9 11.2 40 11.2 z" stroke-linecap="round" />
</g>
</g>
</g>
</g>
</g>
</svg>